<svg width="38" height="38" viewBox="0 0 38 38" fill="none" xmlns="http://www.w3.org/2000/svg">
<rect x="12.85" y="5.35" width="17.3" height="25.3" fill="white" stroke="black" stroke-width="0.7"/>
<rect x="14.5" y="7" width="14" height="23" fill="black"/>
<path d="M16 17L12.5 29H23.7819L20.5 17L22 14L21.5 12H24.5L21 9.5L20 8H16.5L15.5 9.5L12 12H15L14.5 14L16 17Z" fill="white" stroke="black" stroke-miterlimit="5.02447"/>
<path d="M20 33V7.5V6.5L28 9.5V30.5L20 33Z" fill="white" stroke="black" stroke-width="0.7"/>
<path d="M24 19.5C24 20.0523 23.5523 20.5 23 20.5C22.4477 20.5 22 20.0523 22 19.5C22 18.9477 22.4477 18.5 23 18.5C23.5523 18.5 24 18.9477 24 19.5Z" fill="black"/>
</svg>
