<svg width="38" height="38" viewBox="0 0 38 38" fill="none" xmlns="http://www.w3.org/2000/svg">
<path d="M17.8583 30.0199L18.1029 30.4705L18.5473 30.2146L20.2559 29.2309L20.6778 28.9879L20.4462 28.5596L19.0822 26.0383L21.8333 25.6688L22.1335 25.6284L22.2368 25.3438L24.3596 19.493L24.4292 19.3012L24.3448 19.1155L23.8824 18.0982L24.1284 15.5389L24.1811 14.991H23.6307H21.4043H20.9043V15.491V16.2669L20.8635 15.9881L20.801 15.5605H20.3688H19.5404H18.9639L19.0454 16.1312L19.496 19.2856L18.8043 21.6374L15.0851 23.9186L14.6808 24.1665L14.9071 24.5833L17.8583 30.0199Z" fill="white" stroke="black"/>
<path d="M19.5232 12.7165H11.1871V14.5805H20.2372L26.8128 9.76524L25.6542 8.21871L19.5232 12.7165Z" fill="#565555" stroke="white"/>
</svg>
